# xmcd
#
# Track frame offsets:
#	150
#	28590
#	55010
#	81552
#	106722
#	127122
#	150167
#	165742
#	189480
#	207837
#
# Disc length: 3050 seconds
#
# Revision: 1
# Processed by: cddbd v1.5.2PL0 Copyright (c) Steve Scherf et al.
# Submitted via: EZCDAudioConverter 8.0.2.1
#
DISCID=790be80a
DTITLE=Chế Linh, Thanh Tuyền - The Best Of. Mai Lỡ hai Mình Xa Nhau [CD1)
DYEAR=2002
DGENRE=World Pop
TTITLE0=Chế Linh, Thanh Tuyền - Ngày xưa anmh nói
TTITLE1=Thanh Tuyền - Lẻ bóng
TTITLE2=Thanh Tuyền - Chiều mưa biên giới
TTITLE3=Chế Linh, Thanh Tuyền - Chuyến đi về sáng
TTITLE4=Thanh Tuyền - Về dưới mái nhà
TTITLE5=Chế Linh - Xin yêu tôi bằng cả tinh người
TTITLE6=Chế Linh, Thanh Tuyền - Con dduocwngf mang tên em
TTITLE7=Thanh Tuyền - Chuyện ba người
TTITLE8=Thanh Tuyền - Nỗi buồn hoa phượng
TTITLE9=Chế Linh, Thanh Tuyền - Liên Khúc Mai Lỡ Mình Xa Nhau, Đừng Nói Xa Nha
TTITLE9=u
EXTD=
EXTT0=
EXTT1=
EXTT2=
EXTT3=
EXTT4=
EXTT5=
EXTT6=
EXTT7=
EXTT8=
EXTT9=
PLAYORDER=
